<svg id="svg" version="1.1" width="400" height="400" viewBox="0 0 400 400" xmlns="http://www.w3.org/2000/svg" xmlns:xlink="http://www.w3.org/1999/xlink" ><g id="svgg"><path id="path0" d="M120.900 0.270 C 119.965 0.367,119.200 0.616,119.200 0.823 C 119.200 1.030,118.840 1.200,118.400 1.200 C 117.960 1.200,117.600 1.380,117.600 1.600 C 117.600 1.820,117.324 2.000,116.987 2.000 C 116.191 2.000,113.600 4.591,113.600 5.387 C 113.600 5.724,113.464 6.000,113.297 6.000 C 111.506 6.000,112.045 15.469,113.911 16.771 C 114.091 16.897,114.674 17.623,115.207 18.384 C 116.267 19.901,118.076 21.969,120.700 24.665 C 121.635 25.626,122.400 26.603,122.400 26.837 C 122.400 27.071,123.120 27.954,124.000 28.800 C 124.880 29.646,125.600 30.531,125.600 30.769 C 125.600 31.006,125.780 31.200,126.000 31.200 C 126.220 31.200,126.400 31.388,126.400 31.617 C 126.400 32.053,126.800 32.596,128.300 34.201 C 128.795 34.730,129.200 35.325,129.200 35.522 C 129.200 35.720,129.740 36.446,130.400 37.137 C 131.060 37.828,131.601 38.529,131.602 38.696 C 131.603 38.863,132.143 39.575,132.802 40.278 C 133.461 40.981,134.000 41.674,134.000 41.818 C 134.000 41.961,134.540 42.583,135.200 43.200 C 135.860 43.817,136.400 44.537,136.400 44.800 C 136.400 45.063,136.956 45.798,137.635 46.433 C 139.275 47.964,138.575 48.800,135.652 48.800 C 134.549 48.800,133.536 48.980,133.400 49.200 C 133.264 49.420,132.544 49.600,131.800 49.600 C 131.056 49.600,130.336 49.780,130.200 50.000 C 130.064 50.220,129.344 50.400,128.600 50.400 C 127.856 50.400,127.136 50.580,127.000 50.800 C 126.864 51.020,126.133 51.200,125.376 51.200 C 124.619 51.200,124.000 51.380,124.000 51.600 C 124.000 51.820,123.460 52.000,122.800 52.000 C 122.140 52.000,121.600 52.180,121.600 52.400 C 121.600 52.620,121.060 52.800,120.400 52.800 C 119.740 52.800,119.200 52.980,119.200 53.200 C 119.200 53.420,118.660 53.600,118.000 53.600 C 117.340 53.600,116.800 53.780,116.800 54.000 C 116.800 54.220,116.451 54.400,116.024 54.400 C 115.597 54.400,115.136 54.580,115.000 54.800 C 114.864 55.020,114.403 55.200,113.976 55.200 C 113.549 55.200,113.200 55.380,113.200 55.600 C 113.200 55.820,112.966 56.000,112.680 56.000 C 111.944 56.000,110.007 56.941,110.003 57.300 C 110.001 57.465,109.640 57.600,109.200 57.600 C 108.760 57.600,108.400 57.780,108.400 58.000 C 108.400 58.220,108.040 58.400,107.600 58.400 C 107.160 58.400,106.800 58.580,106.800 58.800 C 106.800 59.020,106.440 59.200,106.000 59.200 C 105.560 59.200,105.200 59.368,105.200 59.573 C 105.200 59.778,104.795 60.073,104.300 60.228 C 103.805 60.383,102.648 61.025,101.728 61.655 C 100.808 62.285,99.906 62.800,99.724 62.800 C 98.914 62.800,86.800 74.403,86.800 75.179 C 86.800 75.364,86.305 76.056,85.700 76.718 C 84.041 78.531,83.456 79.304,82.832 80.506 C 82.520 81.108,82.115 81.600,81.932 81.600 C 81.750 81.600,81.600 81.960,81.600 82.400 C 81.600 82.840,81.420 83.200,81.200 83.200 C 80.980 83.200,80.800 83.560,80.800 84.000 C 80.800 84.440,80.664 84.800,80.498 84.800 C 80.331 84.800,79.960 85.385,79.671 86.100 C 79.383 86.815,78.979 87.713,78.774 88.095 C 78.268 89.035,78.290 94.800,78.800 94.800 C 79.020 94.800,79.200 95.160,79.200 95.600 C 79.200 96.040,79.380 96.400,79.600 96.400 C 79.820 96.400,80.000 96.678,80.000 97.018 C 80.000 98.095,82.858 100.400,84.195 100.400 C 84.528 100.400,84.800 100.580,84.800 100.800 C 84.800 101.029,86.000 101.200,87.600 101.200 C 89.200 101.200,90.400 101.371,90.400 101.600 C 90.400 101.820,90.080 102.000,89.688 102.000 C 89.297 102.000,88.717 102.360,88.400 102.800 C 88.083 103.240,87.543 103.600,87.200 103.600 C 86.857 103.600,86.317 103.960,86.000 104.400 C 85.683 104.840,85.215 105.200,84.960 105.200 C 84.705 105.200,83.755 105.920,82.848 106.800 C 81.941 107.680,81.019 108.400,80.800 108.400 C 80.580 108.400,80.400 108.580,80.400 108.800 C 80.400 109.020,80.145 109.200,79.833 109.200 C 79.522 109.200,79.207 109.338,79.133 109.507 C 79.060 109.676,78.107 110.531,77.014 111.407 C 74.534 113.397,64.095 123.779,62.936 125.408 C 62.464 126.072,61.430 127.322,60.638 128.186 C 59.847 129.050,59.200 129.919,59.200 130.118 C 59.200 130.316,58.660 130.983,58.000 131.600 C 57.340 132.217,56.800 132.969,56.800 133.272 C 56.800 133.575,56.440 134.083,56.000 134.400 C 55.560 134.717,55.200 135.257,55.200 135.600 C 55.200 135.943,54.840 136.483,54.400 136.800 C 53.960 137.117,53.600 137.657,53.600 138.000 C 53.600 138.343,53.240 138.883,52.800 139.200 C 52.360 139.517,52.000 140.057,52.000 140.400 C 52.000 140.743,51.640 141.283,51.200 141.600 C 50.760 141.917,50.400 142.497,50.400 142.888 C 50.400 143.280,50.254 143.600,50.075 143.600 C 49.896 143.600,49.502 144.230,49.200 145.000 C 48.898 145.770,48.504 146.400,48.325 146.400 C 48.146 146.400,48.000 146.760,48.000 147.200 C 48.000 147.640,47.820 148.000,47.600 148.000 C 47.380 148.000,47.200 148.360,47.200 148.800 C 47.200 149.240,47.020 149.600,46.800 149.600 C 46.580 149.600,46.400 149.852,46.400 150.159 C 46.400 150.467,45.879 151.710,45.242 152.921 C 44.605 154.132,43.959 155.860,43.807 156.761 C 43.654 157.663,43.366 158.400,43.165 158.400 C 42.964 158.400,42.800 158.839,42.800 159.376 C 42.800 159.913,42.620 160.464,42.400 160.600 C 42.180 160.736,42.000 161.276,42.000 161.800 C 42.000 162.324,41.820 162.864,41.600 163.000 C 41.380 163.136,41.200 163.766,41.200 164.400 C 41.200 165.034,41.020 165.664,40.800 165.800 C 40.580 165.936,40.400 166.566,40.400 167.200 C 40.400 167.834,40.220 168.464,40.000 168.600 C 39.780 168.736,39.600 169.546,39.600 170.400 C 39.600 171.254,39.420 172.064,39.200 172.200 C 38.980 172.336,38.800 173.337,38.800 174.424 C 38.800 175.511,38.620 176.400,38.400 176.400 C 38.178 176.400,38.000 177.459,38.000 178.776 C 38.000 180.083,37.820 181.264,37.600 181.400 C 37.054 181.737,37.054 207.463,37.600 207.800 C 37.820 207.936,38.000 209.106,38.000 210.400 C 38.000 211.694,38.180 212.864,38.400 213.000 C 38.620 213.136,38.800 214.306,38.800 215.600 C 38.800 216.894,38.980 218.064,39.200 218.200 C 39.420 218.336,39.600 219.427,39.600 220.624 C 39.600 221.821,39.780 222.800,40.000 222.800 C 40.220 222.800,40.400 223.700,40.400 224.800 C 40.400 225.900,40.580 226.800,40.800 226.800 C 41.020 226.800,41.200 227.419,41.200 228.176 C 41.200 228.933,41.380 229.664,41.600 229.800 C 41.820 229.936,42.000 230.656,42.000 231.400 C 42.000 232.144,42.180 232.864,42.400 233.000 C 42.620 233.136,42.800 233.867,42.800 234.624 C 42.800 235.381,42.957 236.000,43.148 236.000 C 43.340 236.000,43.621 237.260,43.773 238.800 C 43.924 240.340,44.218 241.600,44.424 241.600 C 44.631 241.600,44.800 242.140,44.800 242.800 C 44.800 243.460,44.980 244.000,45.200 244.000 C 45.420 244.000,45.600 244.540,45.600 245.200 C 45.600 245.860,45.780 246.400,46.000 246.400 C 46.220 246.400,46.400 246.940,46.400 247.600 C 46.400 248.260,46.580 248.800,46.800 248.800 C 47.020 248.800,47.200 249.340,47.200 250.000 C 47.200 250.660,47.380 251.200,47.600 251.200 C 47.820 251.200,48.000 251.740,48.000 252.400 C 48.000 253.060,48.180 253.600,48.400 253.600 C 48.620 253.600,48.800 254.140,48.800 254.800 C 48.800 255.460,48.980 256.000,49.200 256.000 C 49.420 256.000,49.600 256.439,49.600 256.976 C 49.600 257.513,49.780 258.064,50.000 258.200 C 50.220 258.336,50.400 258.887,50.400 259.424 C 50.400 259.961,50.580 260.400,50.800 260.400 C 51.020 260.400,51.200 260.760,51.200 261.200 C 51.200 261.640,51.380 262.000,51.600 262.000 C 51.820 262.000,52.000 262.540,52.000 263.200 C 52.000 263.860,52.180 264.400,52.400 264.400 C 52.620 264.400,52.800 264.760,52.800 265.200 C 52.800 265.640,52.980 266.000,53.200 266.000 C 53.420 266.000,53.600 266.540,53.600 267.200 C 53.600 267.860,53.780 268.400,54.000 268.400 C 54.220 268.400,54.400 268.760,54.400 269.200 C 54.400 269.640,54.580 270.000,54.800 270.000 C 55.020 270.000,55.200 270.439,55.200 270.976 C 55.200 271.513,55.380 272.064,55.600 272.200 C 55.820 272.336,56.000 272.797,56.000 273.224 C 56.000 273.651,56.180 274.000,56.400 274.000 C 56.620 274.000,56.800 274.450,56.800 275.000 C 56.800 275.550,56.980 276.000,57.200 276.000 C 57.420 276.000,57.600 276.360,57.600 276.800 C 57.600 277.240,57.780 277.600,58.000 277.600 C 58.220 277.600,58.400 277.960,58.400 278.400 C 58.400 278.840,58.580 279.200,58.800 279.200 C 59.020 279.200,59.200 279.560,59.200 280.000 C 59.200 280.440,59.380 280.800,59.600 280.800 C 59.820 280.800,60.001 281.115,60.001 281.500 C 60.002 281.885,60.632 283.450,61.401 284.977 C 62.171 286.504,62.800 287.989,62.800 288.277 C 62.800 288.565,62.980 288.800,63.200 288.800 C 63.420 288.800,63.600 289.149,63.600 289.576 C 63.600 290.003,63.780 290.464,64.000 290.600 C 64.220 290.736,64.400 291.197,64.400 291.624 C 64.400 292.051,64.558 292.400,64.751 292.400 C 64.945 292.400,65.327 292.940,65.600 293.600 C 65.873 294.260,66.255 294.800,66.449 294.800 C 66.642 294.800,66.800 295.160,66.800 295.600 C 66.800 296.040,66.980 296.400,67.200 296.400 C 67.420 296.400,67.600 296.760,67.600 297.200 C 67.600 297.640,67.780 298.000,68.000 298.000 C 68.220 298.000,68.400 298.345,68.400 298.767 C 68.400 299.188,68.535 299.593,68.700 299.667 C 69.076 299.834,70.375 301.964,70.671 302.900 C 70.793 303.285,71.052 303.600,71.247 303.600 C 71.441 303.600,71.600 303.960,71.600 304.400 C 71.600 304.840,71.746 305.200,71.925 305.200 C 72.104 305.200,72.498 305.830,72.800 306.600 C 73.102 307.370,73.496 308.000,73.675 308.000 C 73.854 308.000,74.000 308.320,74.000 308.712 C 74.000 309.103,74.360 309.683,74.800 310.000 C 75.240 310.317,75.600 310.857,75.600 311.200 C 75.600 311.543,75.960 312.083,76.400 312.400 C 76.840 312.717,77.201 313.252,77.203 313.588 C 77.204 313.925,77.570 314.740,78.015 315.400 C 78.461 316.060,79.110 317.185,79.458 317.900 C 79.806 318.615,80.251 319.200,80.446 319.200 C 80.641 319.200,80.800 319.436,80.800 319.725 C 80.800 320.013,81.115 320.598,81.500 321.025 C 81.885 321.451,82.469 322.340,82.797 323.000 C 83.126 323.660,83.711 324.491,84.097 324.847 C 84.484 325.203,84.800 325.671,84.800 325.888 C 84.800 326.104,85.340 326.846,86.000 327.537 C 86.660 328.228,87.200 328.976,87.200 329.200 C 87.200 329.424,87.740 330.172,88.400 330.863 C 89.060 331.554,89.600 332.322,89.600 332.571 C 89.600 332.820,89.960 333.283,90.400 333.600 C 90.840 333.917,91.200 334.425,91.200 334.728 C 91.200 335.031,91.740 335.783,92.400 336.400 C 93.060 337.017,93.600 337.733,93.600 337.993 C 93.600 338.527,96.037 341.657,97.700 343.260 C 98.305 343.844,98.800 344.501,98.800 344.720 C 98.800 344.939,99.700 346.038,100.800 347.161 C 101.900 348.285,102.800 349.365,102.800 349.561 C 102.800 349.758,103.700 350.838,104.800 351.961 C 105.900 353.085,106.800 354.104,106.800 354.227 C 106.800 354.795,121.332 369.481,123.200 370.800 C 123.970 371.344,125.370 372.557,126.311 373.495 C 127.251 374.433,128.175 375.200,128.362 375.200 C 128.550 375.200,129.445 375.920,130.352 376.800 C 131.259 377.680,132.154 378.400,132.341 378.400 C 132.528 378.400,133.246 378.940,133.937 379.600 C 134.628 380.260,135.376 380.800,135.600 380.800 C 135.824 380.800,136.572 381.340,137.263 382.000 C 137.954 382.660,138.679 383.200,138.876 383.200 C 139.073 383.200,139.620 383.560,140.092 384.000 C 140.564 384.440,141.187 384.800,141.475 384.800 C 141.764 384.800,142.000 384.980,142.000 385.200 C 142.000 385.420,142.242 385.600,142.538 385.600 C 142.834 385.600,143.402 385.960,143.800 386.400 C 144.198 386.840,144.689 387.200,144.890 387.200 C 145.091 387.200,146.008 387.706,146.928 388.325 C 149.066 389.764,152.885 391.600,153.740 391.600 C 154.103 391.600,154.400 391.780,154.400 392.000 C 154.400 392.220,154.760 392.400,155.200 392.400 C 155.640 392.400,156.000 392.580,156.000 392.800 C 156.000 393.020,156.360 393.200,156.800 393.200 C 157.240 393.200,157.600 393.380,157.600 393.600 C 157.600 393.820,157.960 394.000,158.400 394.000 C 158.840 394.000,159.200 394.180,159.200 394.400 C 159.200 394.620,159.650 394.800,160.200 394.800 C 160.750 394.800,161.200 394.980,161.200 395.200 C 161.200 395.420,161.740 395.600,162.400 395.600 C 163.060 395.600,163.600 395.780,163.600 396.000 C 163.600 396.220,164.050 396.400,164.600 396.400 C 165.150 396.400,165.600 396.580,165.600 396.800 C 165.600 397.020,166.129 397.200,166.776 397.200 C 167.423 397.200,168.064 397.380,168.200 397.600 C 168.336 397.820,168.966 398.000,169.600 398.000 C 170.234 398.000,170.864 398.180,171.000 398.400 C 171.136 398.620,171.852 398.800,172.590 398.800 C 173.329 398.800,174.008 399.025,174.100 399.300 C 174.343 400.029,203.257 400.029,203.500 399.300 C 203.592 399.025,204.271 398.800,205.010 398.800 C 205.748 398.800,206.464 398.620,206.600 398.400 C 206.736 398.180,207.467 398.000,208.224 398.000 C 208.981 398.000,209.600 397.820,209.600 397.600 C 209.600 397.380,210.097 397.200,210.704 397.200 C 211.340 397.200,212.001 396.890,212.265 396.468 C 212.516 396.065,213.865 395.327,215.261 394.827 C 224.417 391.552,238.811 382.945,247.990 375.257 C 255.617 368.869,267.183 357.480,272.498 351.125 C 273.874 349.479,276.352 346.528,278.005 344.566 C 279.658 342.605,281.987 339.650,283.182 338.000 C 284.377 336.350,286.592 333.326,288.104 331.280 C 290.803 327.628,295.791 320.127,299.196 314.600 C 303.280 307.972,303.945 306.857,305.393 304.200 C 306.233 302.660,307.913 299.604,309.128 297.409 C 311.635 292.875,320.800 274.001,320.800 273.370 C 320.800 273.253,321.141 272.401,321.559 271.478 C 324.733 264.460,331.810 244.467,333.372 238.108 C 333.684 236.839,334.556 233.370,335.311 230.400 C 336.820 224.457,337.198 222.590,338.387 215.200 C 340.625 201.294,340.770 186.696,338.772 176.600 C 338.554 175.500,338.177 173.610,337.934 172.400 C 337.691 171.190,337.051 168.670,336.511 166.800 C 335.972 164.930,335.441 163.040,335.332 162.600 C 335.223 162.160,334.986 161.440,334.806 161.000 C 334.625 160.560,334.074 159.120,333.581 157.800 C 332.340 154.477,327.528 144.582,326.093 142.400 C 325.441 141.410,323.864 138.980,322.587 137.000 C 316.987 128.317,306.139 116.792,296.419 109.200 C 293.461 106.890,290.242 104.190,289.264 103.200 L 287.486 101.400 290.438 101.281 C 292.505 101.197,293.487 100.987,293.715 100.581 C 293.894 100.261,294.365 100.000,294.764 100.000 C 297.129 100.000,300.800 94.681,300.800 91.253 C 300.800 89.335,300.485 88.327,298.559 84.088 C 298.032 82.927,297.600 81.906,297.600 81.820 C 297.600 81.246,293.122 74.088,291.124 71.468 C 289.761 69.682,288.700 67.882,288.700 67.358 C 288.700 66.433,285.843 63.420,282.860 61.198 C 282.122 60.649,281.096 59.795,280.578 59.300 C 280.060 58.805,279.398 58.400,279.106 58.400 C 278.815 58.400,278.317 58.040,278.000 57.600 C 277.683 57.160,277.186 56.800,276.895 56.800 C 276.604 56.800,276.003 56.461,275.559 56.047 C 275.114 55.633,273.547 54.715,272.075 54.005 C 270.604 53.296,269.087 52.555,268.705 52.358 C 268.323 52.161,267.753 52.000,267.439 52.000 C 267.124 52.000,266.804 51.813,266.728 51.585 C 266.652 51.356,265.444 51.083,264.043 50.976 C 262.643 50.870,261.334 50.683,261.134 50.559 C 259.660 49.648,252.423 48.105,245.406 47.206 C 240.674 46.599,240.701 47.044,245.062 41.539 C 246.568 39.638,248.610 37.029,249.599 35.741 C 253.477 30.694,259.333 23.963,260.925 22.722 C 263.228 20.928,266.000 17.985,266.000 17.336 C 266.000 17.041,266.180 16.800,266.400 16.800 C 266.620 16.800,266.800 16.440,266.800 16.000 C 266.800 15.560,266.980 15.200,267.200 15.200 C 267.439 15.200,267.600 13.667,267.600 11.400 C 267.600 9.133,267.439 7.600,267.200 7.600 C 266.980 7.600,266.800 7.240,266.800 6.800 C 266.800 6.360,266.620 6.000,266.400 6.000 C 266.180 6.000,266.000 5.706,266.000 5.347 C 266.000 4.616,264.075 2.801,263.300 2.800 C 263.025 2.800,262.800 2.620,262.800 2.400 C 262.800 2.180,262.440 2.000,262.000 2.000 C 261.560 2.000,261.200 1.820,261.200 1.600 C 261.200 1.380,260.606 1.200,259.880 1.200 C 259.154 1.200,258.346 0.986,258.083 0.723 C 257.421 0.061,242.169 0.071,241.506 0.734 C 241.250 0.990,240.536 1.200,239.920 1.200 C 239.304 1.200,238.800 1.380,238.800 1.600 C 238.800 1.820,238.080 2.000,237.200 2.000 C 236.320 2.000,235.600 2.180,235.600 2.400 C 235.600 2.620,235.060 2.800,234.400 2.800 C 233.740 2.800,233.200 2.980,233.200 3.200 C 233.200 3.420,232.761 3.600,232.224 3.600 C 231.687 3.600,231.136 3.780,231.000 4.000 C 230.864 4.220,230.403 4.400,229.976 4.400 C 229.549 4.400,229.200 4.580,229.200 4.800 C 229.200 5.020,228.851 5.200,228.424 5.200 C 227.997 5.200,227.536 5.380,227.400 5.600 C 227.264 5.820,226.803 6.000,226.376 6.000 C 225.949 6.000,225.600 6.180,225.600 6.400 C 225.600 6.620,225.240 6.800,224.800 6.800 C 224.360 6.800,224.000 6.980,224.000 7.200 C 224.000 7.420,223.640 7.600,223.200 7.600 C 222.760 7.600,222.400 7.780,222.400 8.000 C 222.400 8.220,222.040 8.400,221.600 8.400 C 221.160 8.400,220.800 8.580,220.800 8.800 C 220.800 9.020,220.440 9.200,220.000 9.200 C 219.560 9.200,219.200 9.380,219.200 9.600 C 219.200 9.820,218.882 10.000,218.493 10.000 C 218.104 10.000,217.123 10.450,216.314 11.000 C 215.505 11.550,214.730 12.000,214.593 12.000 C 214.456 12.000,213.559 12.540,212.600 13.200 C 211.641 13.860,210.703 14.400,210.516 14.400 C 210.329 14.400,209.917 14.760,209.600 15.200 C 209.283 15.640,208.743 16.000,208.400 16.000 C 208.057 16.000,207.517 16.360,207.200 16.800 C 206.883 17.240,206.343 17.600,206.000 17.600 C 205.657 17.600,205.117 17.960,204.800 18.400 C 204.483 18.840,203.943 19.200,203.600 19.200 C 203.257 19.200,202.717 19.560,202.400 20.000 C 202.083 20.440,201.593 20.800,201.312 20.800 C 201.030 20.800,200.800 20.980,200.800 21.200 C 200.800 21.420,200.602 21.600,200.360 21.600 C 200.119 21.600,199.417 22.140,198.800 22.800 C 198.183 23.460,197.508 24.000,197.299 24.000 C 197.090 24.000,196.354 24.540,195.663 25.200 C 194.972 25.860,194.226 26.400,194.004 26.400 C 193.782 26.400,193.600 26.694,193.600 27.053 C 193.600 27.788,191.000 30.400,190.268 30.400 C 190.006 30.400,188.264 29.181,186.396 27.692 C 184.528 26.203,181.380 23.745,179.400 22.231 C 175.472 19.226,174.400 18.242,174.400 17.639 C 174.400 17.423,173.860 16.926,173.200 16.536 C 172.540 16.146,172.000 15.686,172.000 15.514 C 172.000 15.341,171.730 15.200,171.400 15.200 C 171.070 15.200,170.800 15.020,170.800 14.800 C 170.800 14.580,170.522 14.400,170.183 14.400 C 169.844 14.400,169.180 14.040,168.708 13.600 C 168.236 13.160,167.613 12.800,167.325 12.800 C 167.036 12.800,166.800 12.642,166.800 12.449 C 166.800 12.255,166.260 11.873,165.600 11.600 C 164.940 11.327,164.400 10.965,164.400 10.796 C 164.400 10.627,163.750 10.367,162.955 10.218 C 162.160 10.069,161.136 9.599,160.679 9.173 C 160.223 8.748,159.613 8.400,159.325 8.400 C 159.036 8.400,158.800 8.220,158.800 8.000 C 158.800 7.780,158.440 7.600,158.000 7.600 C 157.560 7.600,157.200 7.420,157.200 7.200 C 157.200 6.980,156.930 6.800,156.600 6.800 C 156.270 6.800,156.000 6.620,156.000 6.400 C 156.000 6.180,155.550 6.000,155.000 6.000 C 154.450 6.000,154.000 5.820,154.000 5.600 C 154.000 5.380,153.550 5.200,153.000 5.200 C 152.450 5.200,152.000 5.020,152.000 4.800 C 152.000 4.580,151.640 4.400,151.200 4.400 C 150.760 4.400,150.400 4.220,150.400 4.000 C 150.400 3.780,149.961 3.600,149.424 3.600 C 148.887 3.600,148.336 3.420,148.200 3.200 C 148.064 2.980,147.603 2.800,147.176 2.800 C 146.749 2.800,146.400 2.620,146.400 2.400 C 146.400 2.180,145.680 2.000,144.800 2.000 C 143.920 2.000,143.200 1.820,143.200 1.600 C 143.200 1.380,142.675 1.200,142.033 1.200 C 141.392 1.200,140.794 0.982,140.705 0.715 C 140.541 0.224,124.767 -0.131,120.900 0.270 M149.600 27.200 C 149.600 27.420,149.878 27.600,150.217 27.600 C 150.556 27.600,151.220 27.960,151.692 28.400 C 152.164 28.840,152.787 29.200,153.075 29.200 C 153.364 29.200,153.600 29.380,153.600 29.600 C 153.600 29.820,153.920 30.000,154.312 30.000 C 154.703 30.000,155.283 30.360,155.600 30.800 C 155.917 31.240,156.457 31.600,156.800 31.600 C 157.143 31.600,157.683 31.960,158.000 32.400 C 158.317 32.840,158.857 33.200,159.200 33.200 C 159.543 33.200,160.083 33.560,160.400 34.000 C 160.717 34.440,161.207 34.800,161.488 34.800 C 161.770 34.800,162.000 34.950,162.000 35.132 C 162.000 35.315,162.492 35.720,163.093 36.032 C 163.694 36.345,164.711 37.095,165.352 37.700 C 165.994 38.305,166.682 38.800,166.881 38.800 C 167.080 38.800,167.819 39.339,168.522 39.998 C 169.225 40.657,170.019 41.197,170.287 41.198 C 170.554 41.199,171.366 41.785,172.090 42.500 C 172.814 43.215,173.900 44.055,174.503 44.368 C 175.106 44.680,175.600 45.085,175.600 45.268 C 175.600 45.450,175.875 45.600,176.210 45.600 C 177.400 45.600,180.820 48.604,182.384 51.022 C 186.620 57.572,193.234 57.753,197.431 51.433 C 199.516 48.292,209.544 39.875,210.953 40.084 C 211.472 40.161,212.210 39.782,212.860 39.105 C 213.444 38.497,214.092 38.000,214.301 38.000 C 214.510 38.000,215.246 37.460,215.937 36.800 C 216.628 36.140,217.398 35.600,217.649 35.600 C 217.901 35.600,218.397 35.284,218.753 34.897 C 219.109 34.511,219.895 33.940,220.500 33.630 C 221.105 33.319,221.600 32.915,221.600 32.732 C 221.600 32.550,221.870 32.400,222.200 32.400 C 222.530 32.400,222.800 32.220,222.800 32.000 C 222.800 31.780,222.993 31.600,223.229 31.600 C 223.464 31.600,223.894 31.375,224.184 31.100 C 225.522 29.830,226.457 29.200,227.005 29.200 C 227.332 29.200,227.600 29.020,227.600 28.800 C 227.600 28.580,227.960 28.400,228.400 28.400 C 228.840 28.400,229.200 28.220,229.200 28.000 C 229.200 27.780,229.476 27.600,229.813 27.600 C 230.401 27.600,227.528 32.004,226.725 32.333 C 226.546 32.407,226.400 32.723,226.400 33.037 C 226.400 33.351,225.860 34.172,225.200 34.863 C 224.540 35.554,224.000 36.322,224.000 36.571 C 224.000 36.820,223.640 37.283,223.200 37.600 C 222.760 37.917,222.400 38.457,222.400 38.800 C 222.400 39.143,222.040 39.683,221.600 40.000 C 221.160 40.317,220.800 40.831,220.800 41.141 C 220.800 41.452,220.485 41.999,220.100 42.357 C 219.034 43.349,218.400 44.669,218.400 45.898 C 218.400 46.507,217.920 47.905,217.333 49.003 C 213.817 55.581,213.922 60.268,217.668 63.953 C 220.343 66.584,221.563 66.722,233.547 65.751 C 244.567 64.857,257.843 68.112,266.408 73.806 C 269.009 75.535,274.400 80.558,274.400 81.252 C 274.400 81.443,267.686 81.600,259.480 81.600 L 244.560 81.600 237.380 79.778 C 231.140 78.195,221.869 76.229,213.800 74.778 C 211.477 74.360,210.107 74.075,206.100 73.172 C 205.055 72.937,203.435 72.577,202.500 72.372 C 199.559 71.728,197.462 71.263,195.523 70.825 C 191.599 69.937,185.807 70.334,178.400 71.999 C 175.909 72.559,168.629 74.084,167.600 74.261 C 167.050 74.355,165.610 74.599,164.400 74.802 C 154.189 76.515,147.871 77.837,140.600 79.780 C 134.707 81.354,133.200 81.513,133.200 80.561 C 133.200 80.023,132.871 79.966,131.100 80.198 C 127.335 80.692,111.200 80.867,111.200 80.415 C 111.200 80.187,111.520 80.000,111.912 80.000 C 112.303 80.000,112.883 79.640,113.200 79.200 C 113.517 78.760,114.007 78.400,114.288 78.400 C 114.570 78.400,114.800 78.220,114.800 78.000 C 114.800 77.780,115.070 77.600,115.400 77.600 C 115.730 77.600,116.000 77.420,116.000 77.200 C 116.000 76.980,116.360 76.800,116.800 76.800 C 117.240 76.800,117.600 76.620,117.600 76.400 C 117.600 76.180,117.960 76.000,118.400 76.000 C 118.840 76.000,119.200 75.820,119.200 75.600 C 119.200 75.380,119.488 75.200,119.840 75.200 C 120.436 75.200,122.498 74.408,124.095 73.566 C 124.477 73.365,125.062 73.200,125.395 73.200 C 125.728 73.200,126.000 73.020,126.000 72.800 C 126.000 72.580,126.540 72.400,127.200 72.400 C 127.860 72.400,128.400 72.220,128.400 72.000 C 128.400 71.780,128.929 71.600,129.576 71.600 C 130.223 71.600,130.864 71.420,131.000 71.200 C 131.136 70.980,131.867 70.800,132.624 70.800 C 133.381 70.800,134.000 70.620,134.000 70.400 C 134.000 70.180,134.810 70.000,135.800 70.000 C 136.790 70.000,137.600 69.820,137.600 69.600 C 137.600 69.380,138.500 69.200,139.600 69.200 C 140.700 69.200,141.600 69.020,141.600 68.800 C 141.600 68.562,143.125 68.400,145.376 68.400 C 147.463 68.400,149.263 68.221,149.400 68.000 C 149.538 67.776,151.444 67.597,153.724 67.594 C 157.378 67.589,160.264 67.069,161.059 66.274 C 161.210 66.123,161.582 66.000,161.885 66.000 C 162.632 66.000,164.400 64.185,164.400 63.418 C 164.400 63.078,164.580 62.800,164.800 62.800 C 165.020 62.800,165.200 62.440,165.200 62.000 C 165.200 61.560,165.380 61.200,165.600 61.200 C 165.839 61.200,166.000 59.667,166.000 57.400 C 166.000 55.133,165.839 53.600,165.600 53.600 C 165.380 53.600,165.200 53.245,165.200 52.811 C 165.200 52.377,164.742 51.252,164.182 50.311 C 163.623 49.370,163.062 48.285,162.936 47.900 C 162.810 47.515,162.548 47.200,162.353 47.200 C 162.159 47.200,162.000 46.840,162.000 46.400 C 162.000 45.960,161.820 45.600,161.600 45.600 C 161.380 45.600,161.200 45.240,161.200 44.800 C 161.200 44.360,161.020 44.000,160.800 44.000 C 160.580 44.000,160.400 43.770,160.400 43.488 C 160.400 43.207,160.040 42.717,159.600 42.400 C 159.160 42.083,158.800 41.516,158.800 41.140 C 158.800 40.765,158.575 40.217,158.300 39.923 C 157.432 38.996,155.200 35.684,155.200 35.323 C 155.200 35.132,154.840 34.717,154.400 34.400 C 153.960 34.083,153.600 33.620,153.600 33.371 C 153.600 33.122,153.060 32.354,152.400 31.663 C 151.740 30.972,151.199 30.271,151.198 30.104 C 151.197 29.937,150.657 29.225,149.998 28.522 C 148.725 27.163,148.556 26.800,149.200 26.800 C 149.420 26.800,149.600 26.980,149.600 27.200 M205.200 93.007 C 207.950 93.328,211.010 93.763,212.000 93.973 C 212.990 94.183,215.600 94.733,217.800 95.194 C 220.000 95.655,222.520 96.199,223.400 96.403 C 224.280 96.607,226.710 97.149,228.800 97.608 C 236.335 99.263,244.927 101.776,248.700 103.430 C 249.415 103.744,250.585 104.249,251.300 104.553 C 257.742 107.291,259.629 108.190,265.105 111.131 C 277.271 117.665,289.210 126.628,296.633 134.800 C 301.968 140.674,304.414 143.799,308.079 149.426 C 310.163 152.625,314.388 160.889,315.326 163.600 C 315.668 164.590,316.517 167.020,317.211 169.000 C 317.904 170.980,318.636 173.500,318.835 174.600 C 319.035 175.700,319.382 177.410,319.607 178.400 C 321.472 186.597,321.637 200.038,319.992 209.700 C 319.776 210.965,319.420 213.080,319.200 214.400 C 318.111 220.932,317.756 222.509,315.029 232.900 C 310.861 248.784,301.341 271.838,291.615 289.600 C 290.350 291.910,288.773 294.790,288.110 296.000 C 286.624 298.712,283.868 303.239,282.342 305.472 C 281.714 306.392,281.200 307.257,281.200 307.396 C 281.200 307.978,269.100 325.468,266.400 328.788 C 265.630 329.735,264.370 331.275,263.600 332.210 C 262.830 333.145,261.300 335.055,260.200 336.454 C 259.100 337.853,256.840 340.438,255.177 342.199 C 253.515 343.959,251.175 346.460,249.977 347.755 C 244.324 353.870,231.446 364.727,225.247 368.605 C 208.036 379.372,193.420 382.906,178.772 379.840 C 174.237 378.891,168.887 376.846,168.467 375.900 C 168.393 375.735,167.898 375.600,167.367 375.600 C 166.835 375.600,166.400 375.420,166.400 375.200 C 166.400 374.980,165.950 374.800,165.400 374.800 C 164.850 374.800,164.400 374.620,164.400 374.400 C 164.400 374.180,164.040 374.000,163.600 374.000 C 163.160 374.000,162.800 373.820,162.800 373.600 C 162.800 373.380,162.440 373.200,162.000 373.200 C 161.560 373.200,161.200 373.020,161.200 372.800 C 161.200 372.580,160.922 372.400,160.583 372.400 C 160.244 372.400,159.580 372.040,159.108 371.600 C 158.636 371.160,157.744 370.576,157.125 370.303 C 156.506 370.029,156.000 369.669,156.000 369.502 C 156.000 369.336,155.680 369.200,155.288 369.200 C 154.897 369.200,154.317 368.840,154.000 368.400 C 153.683 367.960,153.143 367.600,152.800 367.600 C 152.457 367.600,151.917 367.240,151.600 366.800 C 151.283 366.360,150.785 366.000,150.494 366.000 C 150.202 366.000,149.514 365.550,148.964 365.000 C 148.414 364.450,147.811 364.000,147.624 364.000 C 147.437 364.000,146.707 363.460,146.000 362.800 C 145.293 362.140,144.582 361.600,144.419 361.600 C 143.996 361.600,141.978 359.920,140.960 358.719 C 140.305 357.947,138.039 356.000,137.795 356.000 C 137.405 356.000,122.618 341.024,121.208 339.200 C 120.442 338.210,119.317 336.923,118.708 336.340 C 118.099 335.756,117.600 335.103,117.600 334.888 C 117.600 334.673,116.880 333.755,116.000 332.848 C 115.120 331.941,114.400 331.019,114.400 330.800 C 114.400 330.580,114.220 330.400,114.000 330.400 C 113.780 330.400,113.600 330.202,113.600 329.960 C 113.600 329.719,113.060 329.017,112.400 328.400 C 111.740 327.783,111.200 327.153,111.200 327.000 C 111.200 326.847,110.660 326.217,110.000 325.600 C 109.340 324.983,108.800 324.199,108.800 323.858 C 108.800 323.516,108.350 322.786,107.800 322.236 C 107.250 321.686,106.800 321.082,106.800 320.894 C 106.800 320.705,106.485 320.202,106.100 319.775 C 105.715 319.349,105.145 318.505,104.832 317.900 C 104.520 317.295,104.115 316.800,103.932 316.800 C 103.750 316.800,103.600 316.557,103.600 316.259 C 103.600 315.962,103.105 315.194,102.500 314.552 C 101.895 313.911,101.145 312.894,100.832 312.293 C 100.520 311.692,100.115 311.200,99.932 311.200 C 99.750 311.200,99.600 310.930,99.600 310.600 C 99.600 310.270,99.420 310.000,99.200 310.000 C 98.980 310.000,98.800 309.680,98.800 309.288 C 98.800 308.897,98.440 308.317,98.000 308.000 C 97.560 307.683,97.200 307.186,97.200 306.895 C 97.200 306.604,96.840 305.980,96.400 305.508 C 95.960 305.036,95.600 304.413,95.600 304.125 C 95.600 303.836,95.420 303.600,95.200 303.600 C 94.980 303.600,94.800 303.280,94.800 302.888 C 94.800 302.497,94.440 301.917,94.000 301.600 C 93.560 301.283,93.200 300.718,93.200 300.345 C 93.200 299.972,93.063 299.607,92.896 299.533 C 92.729 299.460,92.125 298.500,91.553 297.400 C 89.401 293.262,87.855 290.596,87.533 290.467 C 87.350 290.393,87.200 289.988,87.200 289.567 C 87.200 289.145,87.020 288.800,86.800 288.800 C 86.580 288.800,86.400 288.440,86.400 288.000 C 86.400 287.560,86.220 287.200,86.000 287.200 C 85.780 287.200,85.600 286.840,85.600 286.400 C 85.600 285.960,85.420 285.600,85.200 285.600 C 84.980 285.600,84.800 285.240,84.800 284.800 C 84.800 284.360,84.620 284.000,84.400 284.000 C 84.180 284.000,83.996 283.775,83.991 283.500 C 83.986 283.225,83.630 282.550,83.200 282.000 C 82.770 281.450,82.414 280.685,82.409 280.300 C 82.404 279.915,82.220 279.600,82.000 279.600 C 81.780 279.600,81.600 279.240,81.600 278.800 C 81.600 278.360,81.420 278.000,81.200 278.000 C 80.980 278.000,80.800 277.640,80.800 277.200 C 80.800 276.760,80.620 276.400,80.400 276.400 C 80.180 276.400,80.000 276.040,80.000 275.600 C 80.000 275.160,79.820 274.800,79.600 274.800 C 79.380 274.800,79.200 274.440,79.200 274.000 C 79.200 273.560,79.020 273.200,78.800 273.200 C 78.580 273.200,78.400 272.840,78.400 272.400 C 78.400 271.960,78.220 271.600,78.000 271.600 C 77.780 271.600,77.600 271.240,77.600 270.800 C 77.600 270.360,77.420 270.000,77.200 270.000 C 76.980 270.000,76.800 269.645,76.800 269.212 C 76.800 268.779,76.470 267.834,76.066 267.112 C 75.662 266.390,75.204 265.285,75.047 264.656 C 74.777 263.568,73.557 260.598,72.767 259.105 C 72.565 258.723,72.400 258.048,72.400 257.605 C 72.400 257.162,72.220 256.800,72.000 256.800 C 71.780 256.800,71.600 256.440,71.600 256.000 C 71.600 255.560,71.420 255.200,71.200 255.200 C 70.980 255.200,70.800 254.660,70.800 254.000 C 70.800 253.340,70.620 252.800,70.400 252.800 C 70.180 252.800,70.000 252.440,70.000 252.000 C 70.000 251.560,69.820 251.200,69.600 251.200 C 69.380 251.200,69.200 250.660,69.200 250.000 C 69.200 249.340,69.020 248.800,68.800 248.800 C 68.580 248.800,68.400 248.260,68.400 247.600 C 68.400 246.940,68.220 246.400,68.000 246.400 C 67.780 246.400,67.600 245.961,67.600 245.424 C 67.600 244.887,67.420 244.336,67.200 244.200 C 66.980 244.064,66.800 243.513,66.800 242.976 C 66.800 242.439,66.620 242.000,66.400 242.000 C 66.180 242.000,66.000 241.460,66.000 240.800 C 66.000 240.140,65.820 239.600,65.600 239.600 C 65.380 239.600,65.200 239.060,65.200 238.400 C 65.200 237.740,65.020 237.200,64.800 237.200 C 64.580 237.200,64.400 236.671,64.400 236.024 C 64.400 235.377,64.220 234.736,64.000 234.600 C 63.780 234.464,63.600 233.733,63.600 232.976 C 63.600 232.219,63.420 231.600,63.200 231.600 C 62.980 231.600,62.800 230.981,62.800 230.224 C 62.800 229.467,62.620 228.736,62.400 228.600 C 62.180 228.464,62.000 227.733,62.000 226.976 C 62.000 226.219,61.820 225.600,61.600 225.600 C 61.380 225.600,61.200 224.880,61.200 224.000 C 61.200 223.120,61.020 222.400,60.800 222.400 C 60.580 222.400,60.400 221.500,60.400 220.400 C 60.400 219.300,60.220 218.400,60.000 218.400 C 59.780 218.400,59.600 217.425,59.600 216.233 C 59.600 215.042,59.437 214.007,59.239 213.933 C 58.364 213.610,57.126 186.468,57.940 185.460 C 58.144 185.207,58.441 183.155,58.599 180.900 C 58.757 178.645,59.047 176.800,59.243 176.800 C 59.439 176.800,59.600 175.990,59.600 175.000 C 59.600 174.010,59.780 173.200,60.000 173.200 C 60.220 173.200,60.400 172.660,60.400 172.000 C 60.400 171.340,60.580 170.800,60.800 170.800 C 61.020 170.800,61.200 170.260,61.200 169.600 C 61.200 168.940,61.380 168.400,61.600 168.400 C 61.820 168.400,62.000 167.860,62.000 167.200 C 62.000 166.540,62.180 166.000,62.400 166.000 C 62.620 166.000,62.800 165.651,62.800 165.224 C 62.800 164.797,62.980 164.336,63.200 164.200 C 63.420 164.064,63.600 163.513,63.600 162.976 C 63.600 162.439,63.780 162.000,64.000 162.000 C 64.220 162.000,64.400 161.640,64.400 161.200 C 64.400 160.760,64.580 160.400,64.800 160.400 C 65.020 160.400,65.200 160.040,65.200 159.600 C 65.200 159.160,65.335 158.799,65.500 158.799 C 65.665 158.798,66.250 157.808,66.800 156.600 C 67.350 155.392,67.935 154.402,68.100 154.401 C 68.265 154.401,68.400 154.040,68.400 153.600 C 68.400 153.160,68.580 152.800,68.800 152.800 C 69.020 152.800,69.200 152.506,69.200 152.147 C 69.200 151.788,69.516 151.203,69.903 150.847 C 70.289 150.491,70.860 149.705,71.170 149.100 C 71.481 148.495,71.885 148.000,72.068 148.000 C 72.250 148.000,72.400 147.764,72.400 147.475 C 72.400 147.187,72.741 146.585,73.157 146.138 C 73.574 145.691,74.231 144.714,74.617 143.967 C 75.003 143.221,75.832 142.131,76.459 141.545 C 77.087 140.958,77.600 140.357,77.600 140.209 C 77.600 139.885,91.484 126.000,91.808 126.000 C 92.015 126.000,92.301 125.788,93.714 124.587 C 93.981 124.360,94.830 123.738,95.600 123.206 C 96.370 122.673,97.291 121.914,97.647 121.519 C 98.003 121.124,98.464 120.800,98.671 120.800 C 98.879 120.800,99.398 120.485,99.825 120.100 C 100.251 119.715,101.095 119.145,101.700 118.832 C 102.305 118.520,102.800 118.115,102.800 117.932 C 102.800 117.750,102.993 117.600,103.228 117.600 C 103.463 117.600,104.441 117.060,105.400 116.400 C 106.359 115.740,107.297 115.200,107.484 115.200 C 107.671 115.200,108.083 114.840,108.400 114.400 C 108.717 113.960,109.297 113.600,109.688 113.600 C 110.080 113.600,110.400 113.420,110.400 113.200 C 110.400 112.980,110.760 112.800,111.200 112.800 C 111.640 112.800,112.000 112.620,112.000 112.400 C 112.000 112.180,112.360 112.000,112.800 112.000 C 113.240 112.000,113.600 111.820,113.600 111.600 C 113.600 111.380,113.960 111.200,114.400 111.200 C 114.840 111.200,115.200 111.020,115.200 110.800 C 115.200 110.580,115.560 110.400,116.000 110.400 C 116.440 110.400,116.800 110.220,116.800 110.000 C 116.800 109.780,117.070 109.600,117.400 109.600 C 117.730 109.600,118.000 109.434,118.000 109.232 C 118.000 109.029,118.579 108.736,119.287 108.581 C 119.995 108.425,120.850 108.161,121.187 107.993 C 121.524 107.825,122.700 107.288,123.800 106.800 C 124.900 106.312,126.113 105.752,126.495 105.556 C 126.877 105.360,127.462 105.200,127.795 105.200 C 128.128 105.200,128.400 105.020,128.400 104.800 C 128.400 104.580,128.760 104.400,129.200 104.400 C 129.640 104.400,130.000 104.220,130.000 104.000 C 130.000 103.780,130.540 103.600,131.200 103.600 C 131.860 103.600,132.400 103.420,132.400 103.200 C 132.400 102.980,132.940 102.800,133.600 102.800 C 134.260 102.800,134.800 102.620,134.800 102.400 C 134.800 102.180,135.340 102.000,136.000 102.000 C 136.660 102.000,137.200 101.820,137.200 101.600 C 137.200 101.380,137.639 101.200,138.176 101.200 C 138.713 101.200,139.264 101.020,139.400 100.800 C 139.536 100.580,140.267 100.400,141.024 100.400 C 141.781 100.400,142.400 100.220,142.400 100.000 C 142.400 99.780,143.300 99.600,144.400 99.600 C 145.500 99.600,146.400 99.420,146.400 99.200 C 146.400 98.980,147.109 98.800,147.976 98.800 C 148.843 98.800,149.664 98.620,149.800 98.400 C 149.936 98.180,150.397 98.000,150.824 98.000 C 151.251 98.000,151.600 97.863,151.600 97.695 C 151.600 97.325,155.203 96.327,160.600 95.202 C 162.800 94.743,165.320 94.206,166.200 94.010 C 175.052 92.031,192.921 91.571,205.200 93.007 M119.461 129.775 C 112.825 133.026,111.216 140.963,116.115 146.278 C 125.164 156.095,140.036 143.552,131.990 132.887 C 129.082 129.033,123.703 127.697,119.461 129.775 M183.800 129.291 C 173.711 132.887,174.587 147.074,185.052 149.568 C 191.067 151.001,197.600 145.604,197.600 139.200 C 197.600 132.331,190.192 127.012,183.800 129.291 M246.981 129.310 C 238.246 132.824,237.424 144.372,245.607 148.604 C 254.299 153.098,264.018 143.812,259.845 135.000 C 257.531 130.113,251.555 127.470,246.981 129.310 M93.333 175.165 C 81.313 178.208,83.521 196.022,95.915 195.996 C 99.282 195.989,104.525 192.516,105.331 189.758 C 106.364 186.224,106.442 185.444,105.967 183.452 C 104.568 177.592,98.769 173.788,93.333 175.165 M156.130 175.356 C 144.437 179.149,146.775 195.800,159.000 195.800 C 168.084 195.800,172.835 185.194,166.722 178.562 C 163.925 175.527,159.620 174.224,156.130 175.356 M219.400 175.334 C 209.387 178.620,209.226 192.151,219.160 195.537 C 224.387 197.318,230.276 194.118,232.294 188.400 C 234.883 181.062,226.825 172.897,219.400 175.334 M282.685 175.348 C 275.274 177.421,272.589 187.085,277.899 192.572 C 283.281 198.133,292.162 196.537,295.176 189.467 C 298.530 181.599,290.955 173.036,282.685 175.348 M121.949 224.445 C 116.001 225.327,111.914 231.858,113.700 237.628 C 116.195 245.691,126.939 247.705,132.016 241.062 C 137.905 233.357,131.635 223.009,121.949 224.445 M185.101 224.452 C 178.461 225.436,174.698 233.095,177.770 239.374 C 182.620 249.288,197.391 245.695,197.398 234.600 C 197.403 227.893,191.995 223.430,185.101 224.452 M248.358 224.421 C 240.480 225.686,237.235 235.599,242.709 241.672 C 249.381 249.073,261.502 243.780,260.702 233.815 C 260.198 227.531,254.760 223.394,248.358 224.421 M147.800 288.347 C 137.333 293.118,140.688 308.404,152.200 308.394 C 159.485 308.388,164.591 300.087,161.400 293.439 C 159.063 288.569,152.612 286.154,147.800 288.347 M210.415 288.700 C 201.105 293.470,203.998 307.563,214.440 308.310 C 223.460 308.955,228.926 298.718,223.415 291.501 C 220.452 287.621,214.868 286.418,210.415 288.700 M182.800 337.634 C 173.017 342.069,175.522 356.644,186.215 357.502 C 196.171 358.301,201.468 346.171,194.073 339.509 C 190.936 336.683,186.518 335.948,182.800 337.634 " stroke="none" fill="#000000" fill-rule="evenodd"></path><path id="path1" d="M287.601 362.198 C 287.086 362.748,286.739 363.264,286.832 363.346 C 286.924 363.428,287.419 362.978,287.930 362.347 C 289.076 360.935,288.874 360.844,287.601 362.198 " stroke="none" fill="#ff0000" fill-rule="evenodd"></path><path id="path2" d="M174.400 17.864 C 174.400 18.208,176.667 20.246,178.200 21.280 C 179.024 21.836,178.898 21.641,177.800 20.660 C 176.920 19.873,176.077 19.223,175.927 19.215 C 175.777 19.207,175.540 18.840,175.400 18.400 C 175.166 17.664,174.400 17.254,174.400 17.864 M183.324 25.077 C 183.660 25.621,186.800 28.155,186.800 27.882 C 186.800 27.780,185.953 27.003,184.919 26.155 C 183.884 25.307,183.166 24.822,183.324 25.077 M249.144 36.300 C 247.993 37.689,247.506 38.400,247.704 38.400 C 247.814 38.400,248.386 37.770,248.973 37.000 C 250.063 35.571,250.195 35.032,249.144 36.300 M243.544 43.500 C 242.393 44.889,241.906 45.600,242.104 45.600 C 242.214 45.600,242.786 44.970,243.373 44.200 C 244.463 42.771,244.595 42.232,243.544 43.500 M243.633 46.947 C 243.725 47.028,244.970 47.193,246.400 47.315 C 248.038 47.454,248.556 47.418,247.800 47.215 C 246.578 46.889,243.330 46.680,243.633 46.947 M195.478 53.813 C 194.860 54.356,194.514 54.800,194.708 54.800 C 194.902 54.800,195.483 54.350,196.000 53.800 C 197.195 52.528,196.931 52.534,195.478 53.813 M191.200 56.000 C 190.376 56.264,190.341 56.326,191.000 56.354 C 191.440 56.373,192.070 56.213,192.400 56.000 C 193.101 55.547,192.614 55.547,191.200 56.000 M214.509 57.200 C 214.509 58.190,214.587 58.595,214.682 58.100 C 214.778 57.605,214.778 56.795,214.682 56.300 C 214.587 55.805,214.509 56.210,214.509 57.200 M234.115 65.896 C 235.388 65.976,237.368 65.975,238.515 65.894 C 239.662 65.814,238.620 65.749,236.200 65.750 C 233.780 65.751,232.842 65.816,234.115 65.896 M229.100 66.282 C 229.595 66.378,230.405 66.378,230.900 66.282 C 231.395 66.187,230.990 66.109,230.000 66.109 C 229.010 66.109,228.605 66.187,229.100 66.282 M241.500 66.282 C 241.995 66.378,242.805 66.378,243.300 66.282 C 243.795 66.187,243.390 66.109,242.400 66.109 C 241.410 66.109,241.005 66.187,241.500 66.282 M223.100 66.689 C 223.815 66.778,224.985 66.778,225.700 66.689 C 226.415 66.601,225.830 66.528,224.400 66.528 C 222.970 66.528,222.385 66.601,223.100 66.689 M247.600 66.800 C 248.150 66.976,248.960 67.120,249.400 67.120 C 250.033 67.120,249.992 67.054,249.200 66.800 C 248.650 66.624,247.840 66.480,247.400 66.480 C 246.767 66.480,246.808 66.546,247.600 66.800 M288.671 67.100 C 288.435 67.501,289.039 69.053,289.555 69.372 C 289.781 69.512,289.713 69.138,289.404 68.542 C 289.094 67.945,288.932 67.309,289.044 67.129 C 289.156 66.948,289.157 66.800,289.047 66.800 C 288.937 66.800,288.768 66.935,288.671 67.100 M262.000 71.379 C 262.000 71.489,262.540 71.859,263.200 72.200 C 263.860 72.541,264.400 72.731,264.400 72.621 C 264.400 72.511,263.860 72.141,263.200 71.800 C 262.540 71.459,262.000 71.269,262.000 71.379 M166.500 74.276 C 166.885 74.376,167.515 74.376,167.900 74.276 C 168.285 74.175,167.970 74.093,167.200 74.093 C 166.430 74.093,166.115 74.175,166.500 74.276 M210.900 74.276 C 211.285 74.376,211.915 74.376,212.300 74.276 C 212.685 74.175,212.370 74.093,211.600 74.093 C 210.830 74.093,210.515 74.175,210.900 74.276 M161.505 75.083 C 162.002 75.179,162.722 75.175,163.105 75.075 C 163.487 74.975,163.080 74.896,162.200 74.901 C 161.320 74.905,161.007 74.987,161.505 75.083 M214.833 74.945 C 214.925 75.025,215.801 75.192,216.779 75.318 C 217.930 75.465,218.354 75.416,217.979 75.179 C 217.445 74.840,214.458 74.619,214.833 74.945 M227.633 77.343 C 227.725 77.421,228.430 77.601,229.200 77.742 C 230.185 77.923,230.422 77.882,230.000 77.606 C 229.458 77.250,227.237 77.003,227.633 77.343 M234.033 78.944 C 234.125 79.023,234.740 79.208,235.400 79.356 C 236.276 79.552,236.438 79.515,236.000 79.218 C 235.460 78.853,233.632 78.598,234.033 78.944 M273.517 80.461 C 273.939 81.001,273.939 81.160,273.517 81.330 C 273.188 81.461,273.255 81.548,273.700 81.568 C 274.085 81.586,274.400 81.442,274.400 81.249 C 274.400 81.056,274.085 80.651,273.700 80.349 C 273.075 79.858,273.055 79.870,273.517 80.461 M185.800 92.349 L 189.000 92.600 183.600 93.762 C 180.630 94.400,176.670 95.257,174.800 95.665 C 172.930 96.073,169.420 96.802,167.000 97.284 C 164.580 97.767,162.540 98.305,162.467 98.481 C 162.393 98.656,161.808 98.800,161.167 98.800 C 160.525 98.800,160.000 98.947,160.000 99.128 C 160.000 99.308,159.100 99.700,158.000 100.000 C 156.900 100.300,156.000 100.692,156.000 100.872 C 156.000 101.053,155.640 101.200,155.200 101.200 C 154.760 101.200,154.400 101.380,154.400 101.600 C 154.400 101.820,154.065 102.000,153.656 102.000 C 153.036 102.000,150.678 103.024,147.105 104.846 C 146.723 105.041,146.153 105.200,145.839 105.200 C 145.524 105.200,145.207 105.335,145.133 105.500 C 144.966 105.876,142.836 107.175,141.900 107.471 C 141.515 107.593,141.200 107.852,141.200 108.047 C 141.200 108.241,140.840 108.400,140.400 108.400 C 139.960 108.400,139.600 108.580,139.600 108.800 C 139.600 109.020,139.240 109.200,138.800 109.200 C 138.360 109.200,138.000 109.380,138.000 109.600 C 138.000 109.820,137.745 110.000,137.432 110.000 C 136.765 110.000,134.260 111.265,134.067 111.700 C 133.993 111.865,133.781 112.000,133.595 112.000 C 133.206 112.000,128.450 115.105,127.698 115.850 C 127.421 116.124,126.836 116.462,126.398 116.601 C 125.959 116.740,125.600 117.022,125.600 117.227 C 125.600 117.432,125.328 117.600,124.996 117.600 C 124.664 117.600,123.828 118.140,123.137 118.800 C 122.446 119.460,121.728 120.000,121.541 120.000 C 121.354 120.000,120.459 120.720,119.552 121.600 C 118.645 122.480,117.727 123.200,117.512 123.200 C 117.297 123.200,116.617 123.740,116.000 124.400 C 115.383 125.060,114.752 125.600,114.597 125.600 C 114.443 125.600,113.570 126.321,112.658 127.203 C 106.029 133.613,104.478 135.182,103.555 136.410 C 102.980 137.174,101.980 138.367,101.332 139.060 C 100.684 139.753,99.714 140.894,99.177 141.595 C 98.640 142.296,98.007 143.079,97.771 143.335 C 96.812 144.377,93.600 149.183,93.600 149.577 C 93.600 149.810,93.420 150.000,93.200 150.000 C 92.980 150.000,92.800 150.270,92.800 150.600 C 92.800 150.930,92.620 151.200,92.400 151.200 C 92.180 151.200,92.000 151.520,92.000 151.912 C 92.000 152.303,91.640 152.883,91.200 153.200 C 90.760 153.517,90.400 154.097,90.400 154.488 C 90.400 154.880,90.220 155.200,90.000 155.200 C 89.780 155.200,89.600 155.560,89.600 156.000 C 89.600 156.440,89.420 156.800,89.200 156.800 C 88.980 156.800,88.800 157.160,88.800 157.600 C 88.800 158.040,88.620 158.400,88.400 158.400 C 88.180 158.400,88.000 158.745,88.000 159.167 C 88.000 159.588,87.864 159.993,87.698 160.067 C 87.532 160.140,86.793 161.460,86.056 163.000 C 85.319 164.540,84.555 166.113,84.358 166.495 C 84.161 166.877,84.000 167.552,84.000 167.995 C 84.000 168.438,83.820 168.800,83.600 168.800 C 83.380 168.800,83.200 169.162,83.200 169.605 C 83.200 170.048,83.035 170.723,82.834 171.105 C 82.450 171.834,81.054 176.546,80.614 178.600 C 80.473 179.260,80.176 180.610,79.955 181.600 C 79.221 184.885,78.787 188.157,78.577 192.000 C 78.462 194.090,78.205 196.942,78.005 198.338 C 77.791 199.833,77.787 201.723,77.996 202.938 C 78.191 204.072,78.449 207.070,78.568 209.600 C 78.688 212.130,78.980 215.280,79.219 216.600 C 79.457 217.920,79.747 220.035,79.862 221.300 C 79.977 222.565,80.218 223.600,80.399 223.600 C 80.579 223.600,80.825 224.545,80.945 225.700 C 81.331 229.404,81.675 231.199,82.042 231.426 C 82.239 231.548,82.400 232.357,82.400 233.224 C 82.400 234.091,82.580 234.800,82.800 234.800 C 83.020 234.800,83.200 235.430,83.200 236.200 C 83.200 236.970,83.380 237.600,83.600 237.600 C 83.820 237.600,84.000 238.320,84.000 239.200 C 84.000 240.080,84.180 240.800,84.400 240.800 C 84.620 240.800,84.800 241.419,84.800 242.176 C 84.800 242.933,84.980 243.664,85.200 243.800 C 85.420 243.936,85.600 244.577,85.600 245.224 C 85.600 245.871,85.780 246.400,86.000 246.400 C 86.220 246.400,86.400 246.940,86.400 247.600 C 86.400 248.260,86.580 248.800,86.800 248.800 C 87.020 248.800,87.200 249.239,87.200 249.776 C 87.200 250.313,87.380 250.864,87.600 251.000 C 87.820 251.136,88.000 251.676,88.000 252.200 C 88.000 252.724,88.180 253.264,88.400 253.400 C 88.620 253.536,88.800 254.177,88.800 254.824 C 88.800 255.471,88.980 256.000,89.200 256.000 C 89.420 256.000,89.600 256.439,89.600 256.976 C 89.600 257.513,89.780 258.064,90.000 258.200 C 90.220 258.336,90.400 258.887,90.400 259.424 C 90.400 259.961,90.580 260.400,90.800 260.400 C 91.020 260.400,91.200 260.940,91.200 261.600 C 91.200 262.260,91.380 262.800,91.600 262.800 C 91.820 262.800,92.000 263.160,92.000 263.600 C 92.000 264.040,92.180 264.400,92.400 264.400 C 92.620 264.400,92.800 264.850,92.800 265.400 C 92.800 265.950,92.980 266.400,93.200 266.400 C 93.420 266.400,93.600 266.696,93.600 267.057 C 93.600 267.418,94.230 269.307,95.000 271.254 C 95.770 273.201,96.400 275.066,96.400 275.397 C 96.400 275.729,96.535 276.001,96.700 276.003 C 97.059 276.007,98.000 277.944,98.000 278.680 C 98.000 278.966,98.180 279.200,98.400 279.200 C 98.620 279.200,98.800 279.560,98.800 280.000 C 98.800 280.440,98.980 280.800,99.200 280.800 C 99.420 280.800,99.600 281.087,99.600 281.438 C 99.600 281.789,100.140 283.060,100.800 284.263 C 101.460 285.465,102.000 286.708,102.000 287.025 C 102.000 287.341,102.180 287.600,102.400 287.600 C 102.620 287.600,102.800 287.960,102.800 288.400 C 102.800 288.840,102.980 289.200,103.200 289.200 C 103.420 289.200,103.600 289.434,103.600 289.720 C 103.600 290.456,104.541 292.393,104.900 292.397 C 105.065 292.399,105.200 292.760,105.200 293.200 C 105.200 293.640,105.380 294.000,105.600 294.000 C 105.820 294.000,106.000 294.360,106.000 294.800 C 106.000 295.240,106.180 295.600,106.400 295.600 C 106.620 295.600,106.800 295.960,106.800 296.400 C 106.800 296.840,106.946 297.200,107.125 297.200 C 107.304 297.200,107.698 297.830,108.000 298.600 C 108.302 299.370,108.696 300.000,108.875 300.000 C 109.054 300.000,109.200 300.270,109.200 300.600 C 109.200 300.930,109.380 301.200,109.600 301.200 C 109.820 301.200,110.000 301.441,110.000 301.736 C 110.000 302.031,110.729 303.606,111.619 305.236 C 112.510 306.866,113.341 308.515,113.466 308.900 C 113.591 309.285,113.852 309.600,114.047 309.600 C 114.241 309.600,114.400 309.894,114.400 310.253 C 114.400 310.612,114.715 311.198,115.100 311.554 C 115.896 312.291,117.141 314.258,117.471 315.300 C 117.593 315.685,117.852 316.000,118.047 316.000 C 118.241 316.000,118.400 316.278,118.400 316.617 C 118.400 316.956,118.736 317.594,119.146 318.034 C 119.557 318.475,120.305 319.637,120.809 320.618 C 121.313 321.598,121.834 322.400,121.965 322.400 C 122.097 322.400,122.458 322.972,122.768 323.672 C 123.078 324.372,123.841 325.479,124.465 326.131 C 125.089 326.784,125.600 327.522,125.600 327.771 C 125.600 328.020,125.960 328.483,126.400 328.800 C 126.840 329.117,127.200 329.654,127.200 329.992 C 127.200 330.331,127.650 331.093,128.200 331.687 C 128.750 332.280,129.200 332.919,129.200 333.107 C 129.200 333.295,129.515 333.804,129.900 334.238 C 131.359 335.883,133.200 338.366,133.200 338.688 C 133.200 338.873,133.560 339.283,134.000 339.600 C 134.440 339.917,134.800 340.317,134.800 340.488 C 134.800 340.820,135.297 341.427,137.453 343.733 C 138.194 344.525,138.800 345.267,138.800 345.382 C 138.800 345.666,139.930 347.028,141.500 348.640 C 142.215 349.373,142.800 350.159,142.800 350.387 C 142.800 350.614,142.980 350.800,143.200 350.800 C 143.420 350.800,143.600 351.038,143.600 351.328 C 143.600 351.618,144.005 352.220,144.500 352.666 C 144.995 353.111,146.726 354.899,148.346 356.638 C 156.125 364.988,162.230 370.915,166.200 373.971 C 167.080 374.648,168.160 375.486,168.600 375.833 C 174.348 380.362,188.171 382.141,199.400 379.797 C 207.515 378.104,215.796 374.517,225.247 368.605 C 231.446 364.727,244.324 353.870,249.977 347.755 C 251.175 346.460,253.515 343.959,255.177 342.199 C 256.840 340.438,259.100 337.853,260.200 336.454 C 261.300 335.055,262.830 333.145,263.600 332.210 C 264.370 331.275,265.630 329.735,266.400 328.788 C 269.100 325.468,281.200 307.978,281.200 307.396 C 281.200 307.257,281.714 306.392,282.342 305.472 C 283.868 303.239,286.624 298.712,288.110 296.000 C 288.773 294.790,290.350 291.910,291.615 289.600 C 301.341 271.838,310.861 248.784,315.029 232.900 C 317.756 222.509,318.111 220.932,319.200 214.400 C 319.420 213.080,319.776 210.965,319.992 209.700 C 321.637 200.038,321.472 186.597,319.607 178.400 C 319.382 177.410,319.035 175.700,318.835 174.600 C 318.636 173.500,317.904 170.980,317.211 169.000 C 316.517 167.020,315.668 164.590,315.326 163.600 C 314.388 160.889,310.163 152.625,308.079 149.426 C 304.414 143.799,301.968 140.674,296.633 134.800 C 289.210 126.628,277.271 117.665,265.105 111.131 C 259.629 108.190,257.742 107.291,251.300 104.553 C 250.585 104.249,249.415 103.744,248.700 103.430 C 244.927 101.776,236.335 99.263,228.800 97.608 C 226.710 97.149,224.280 96.607,223.400 96.403 C 222.520 96.199,220.000 95.655,217.800 95.194 C 215.600 94.733,212.990 94.183,212.000 93.973 C 207.862 93.095,199.648 92.412,191.400 92.260 C 186.560 92.171,184.040 92.211,185.800 92.349 M176.500 92.676 C 176.885 92.776,177.515 92.776,177.900 92.676 C 178.285 92.575,177.970 92.493,177.200 92.493 C 176.430 92.493,176.115 92.575,176.500 92.676 M172.700 93.082 C 173.195 93.178,174.005 93.178,174.500 93.082 C 174.995 92.987,174.590 92.909,173.600 92.909 C 172.610 92.909,172.205 92.987,172.700 93.082 M167.300 93.876 C 167.685 93.976,168.315 93.976,168.700 93.876 C 169.085 93.775,168.770 93.693,168.000 93.693 C 167.230 93.693,166.915 93.775,167.300 93.876 M298.226 97.513 C 296.815 99.203,296.788 99.275,297.960 98.200 C 299.071 97.182,300.288 95.570,299.914 95.613 C 299.851 95.620,299.092 96.475,298.226 97.513 M154.400 96.600 C 152.509 97.328,153.782 97.339,155.800 96.612 C 156.680 96.295,157.040 96.041,156.600 96.048 C 156.160 96.055,155.170 96.303,154.400 96.600 M293.867 100.267 C 293.484 100.649,293.538 101.200,293.957 101.200 C 294.154 101.200,294.418 100.930,294.545 100.600 C 294.779 99.990,294.353 99.781,293.867 100.267 M289.800 103.776 C 290.680 104.561,294.280 107.521,297.800 110.354 C 307.437 118.110,317.094 128.492,322.585 137.000 C 323.863 138.980,325.441 141.410,326.093 142.400 C 327.528 144.582,332.340 154.477,333.581 157.800 C 334.074 159.120,334.625 160.560,334.806 161.000 C 334.986 161.440,335.223 162.160,335.332 162.600 C 335.441 163.040,335.972 164.930,336.511 166.800 C 337.931 171.723,338.932 176.712,339.642 182.400 C 340.232 187.128,340.227 201.778,339.634 206.600 C 339.169 210.388,337.893 218.542,337.132 222.600 C 336.885 223.920,336.065 227.430,335.311 230.400 C 334.556 233.370,333.684 236.839,333.372 238.108 C 331.810 244.467,324.733 264.460,321.559 271.478 C 321.141 272.401,320.800 273.253,320.800 273.370 C 320.800 274.001,311.635 292.875,309.128 297.409 C 307.913 299.604,306.233 302.660,305.393 304.200 C 303.953 306.842,303.167 308.160,299.136 314.700 C 295.774 320.152,290.781 327.658,288.104 331.280 C 286.592 333.326,284.377 336.350,283.182 338.000 C 281.987 339.650,279.658 342.605,278.005 344.566 C 276.352 346.528,273.874 349.479,272.498 351.125 C 265.067 360.012,250.996 373.309,242.390 379.577 C 239.083 381.986,237.517 383.047,232.600 386.212 C 229.207 388.395,220.367 392.847,216.375 394.382 C 209.837 396.895,210.294 397.200,220.600 397.200 C 226.067 397.200,229.200 397.054,229.200 396.800 C 229.200 396.578,230.267 396.400,231.600 396.400 C 232.933 396.400,234.000 396.222,234.000 396.000 C 234.000 395.780,234.630 395.600,235.400 395.600 C 236.170 395.600,236.800 395.420,236.800 395.200 C 236.800 394.980,237.419 394.800,238.176 394.800 C 238.933 394.800,239.664 394.620,239.800 394.400 C 239.936 394.180,240.397 394.000,240.824 394.000 C 241.251 394.000,241.600 393.820,241.600 393.600 C 241.600 393.380,242.140 393.200,242.800 393.200 C 243.460 393.200,244.000 393.020,244.000 392.800 C 244.000 392.580,244.540 392.400,245.200 392.400 C 245.860 392.400,246.400 392.220,246.400 392.000 C 246.400 391.780,246.715 391.600,247.100 391.599 C 248.168 391.598,259.600 385.684,259.600 385.133 C 259.600 384.950,259.894 384.800,260.253 384.800 C 260.612 384.800,261.197 384.484,261.553 384.097 C 261.909 383.711,262.695 383.140,263.300 382.830 C 263.905 382.519,264.400 382.115,264.400 381.932 C 264.400 381.750,264.688 381.600,265.040 381.600 C 265.391 381.600,266.183 381.060,266.800 380.400 C 267.417 379.740,268.169 379.200,268.472 379.200 C 268.775 379.200,269.283 378.840,269.600 378.400 C 269.917 377.960,270.407 377.600,270.688 377.600 C 270.970 377.600,271.200 377.420,271.200 377.200 C 271.200 376.980,271.404 376.800,271.653 376.800 C 271.902 376.800,272.397 376.468,272.753 376.063 C 273.109 375.657,274.480 374.451,275.800 373.383 C 277.120 372.315,278.861 370.757,279.669 369.920 C 280.476 369.084,281.266 368.400,281.423 368.400 C 281.580 368.400,282.112 367.995,282.605 367.500 C 283.098 367.005,284.019 366.129,284.651 365.552 C 285.283 364.976,286.211 363.959,286.713 363.293 C 287.214 362.627,289.779 359.879,292.413 357.187 C 295.046 354.495,297.200 352.159,297.200 351.995 C 297.200 351.831,298.100 350.753,299.200 349.600 C 300.300 348.447,301.200 347.339,301.200 347.138 C 301.200 346.938,301.830 346.143,302.600 345.373 C 303.370 344.603,304.001 343.844,304.002 343.687 C 304.003 343.529,304.825 342.500,305.829 341.400 C 306.833 340.300,307.951 338.905,308.314 338.300 C 308.676 337.695,309.114 337.200,309.286 337.200 C 309.459 337.200,309.600 336.922,309.600 336.582 C 309.600 336.242,310.050 335.514,310.600 334.964 C 311.150 334.414,311.600 333.800,311.600 333.600 C 311.600 333.400,312.050 332.786,312.600 332.236 C 313.150 331.686,313.600 331.047,313.600 330.815 C 313.600 330.583,314.140 329.828,314.800 329.137 C 315.460 328.446,316.000 327.678,316.000 327.429 C 316.000 327.180,316.360 326.717,316.800 326.400 C 317.240 326.083,317.600 325.518,317.600 325.145 C 317.600 324.772,317.735 324.407,317.900 324.333 C 318.355 324.131,320.000 321.690,320.000 321.216 C 320.000 320.987,320.180 320.800,320.400 320.800 C 320.620 320.800,320.800 320.530,320.800 320.200 C 320.800 319.870,320.980 319.600,321.200 319.600 C 321.420 319.600,321.600 319.330,321.600 319.000 C 321.600 318.670,321.762 318.400,321.961 318.400 C 322.159 318.400,322.517 317.905,322.755 317.300 C 323.235 316.081,323.940 314.918,324.700 314.088 C 324.975 313.788,325.200 313.235,325.200 312.860 C 325.200 312.484,325.560 311.917,326.000 311.600 C 326.440 311.283,326.800 310.703,326.800 310.312 C 326.800 309.920,326.980 309.600,327.200 309.600 C 327.420 309.600,327.600 309.240,327.600 308.800 C 327.600 308.360,327.759 308.000,327.953 308.000 C 328.148 308.000,328.407 307.685,328.529 307.300 C 328.749 306.604,330.013 304.382,330.405 304.000 C 330.518 303.890,331.058 302.900,331.605 301.800 C 332.152 300.700,332.735 299.740,332.900 299.667 C 333.065 299.593,333.200 299.188,333.200 298.767 C 333.200 298.345,333.349 298.000,333.532 298.000 C 333.714 298.000,334.285 297.100,334.800 296.000 C 335.315 294.900,335.886 294.000,336.068 294.000 C 336.251 294.000,336.400 293.640,336.400 293.200 C 336.400 292.760,336.580 292.400,336.800 292.400 C 337.020 292.400,337.200 292.140,337.200 291.823 C 337.200 291.506,338.190 289.148,339.400 286.582 C 340.610 284.017,341.600 281.666,341.600 281.359 C 341.600 281.052,341.780 280.800,342.000 280.800 C 342.220 280.800,342.400 280.440,342.400 280.000 C 342.400 279.560,342.580 279.200,342.800 279.200 C 343.020 279.200,343.200 278.840,343.200 278.400 C 343.200 277.960,343.380 277.600,343.600 277.600 C 343.820 277.600,344.000 277.245,344.000 276.812 C 344.000 276.379,344.360 275.383,344.800 274.600 C 345.240 273.817,345.600 272.911,345.600 272.588 C 345.600 272.265,345.780 272.000,346.000 272.000 C 346.220 272.000,346.400 271.674,346.400 271.275 C 346.400 270.876,346.760 269.805,347.200 268.894 C 347.640 267.984,348.000 266.960,348.000 266.619 C 348.000 266.279,348.147 266.000,348.328 266.000 C 348.508 266.000,348.900 265.100,349.200 264.000 C 349.500 262.900,349.853 262.000,349.985 262.000 C 350.117 262.000,350.475 261.145,350.780 260.100 C 351.085 259.055,351.462 257.930,351.618 257.600 C 351.774 257.270,352.116 256.280,352.377 255.400 C 352.639 254.520,352.996 253.440,353.171 253.000 C 353.346 252.560,353.706 251.480,353.971 250.600 C 354.236 249.720,354.599 248.640,354.777 248.200 C 354.955 247.760,355.303 246.897,355.550 246.281 C 355.798 245.666,356.000 244.731,356.000 244.205 C 356.000 243.678,356.180 243.136,356.400 243.000 C 356.620 242.864,356.800 242.281,356.800 241.705 C 356.800 240.795,357.083 239.653,357.917 237.200 C 358.282 236.126,358.415 235.433,358.665 233.300 C 358.801 232.145,359.067 231.200,359.256 231.200 C 359.445 231.200,359.600 230.390,359.600 229.400 C 359.600 228.410,359.780 227.600,360.000 227.600 C 360.222 227.600,360.400 226.533,360.400 225.200 C 360.400 223.867,360.578 222.800,360.800 222.800 C 361.020 222.800,361.200 221.810,361.200 220.600 C 361.200 219.390,361.365 218.400,361.566 218.400 C 362.210 218.400,362.473 213.309,362.476 200.800 C 362.479 188.422,362.223 183.600,361.564 183.600 C 361.364 183.600,361.200 182.801,361.200 181.824 C 361.200 180.847,361.020 179.936,360.800 179.800 C 360.580 179.664,360.400 178.944,360.400 178.200 C 360.400 177.456,360.220 176.736,360.000 176.600 C 359.780 176.464,359.600 175.823,359.600 175.176 C 359.600 174.529,359.444 174.000,359.254 174.000 C 359.064 174.000,358.800 173.235,358.666 172.300 C 358.273 169.541,353.255 157.667,352.314 157.267 C 352.141 157.193,352.000 156.788,352.000 156.367 C 352.000 155.945,351.820 155.600,351.600 155.600 C 351.380 155.600,351.200 155.240,351.200 154.800 C 351.200 154.360,351.020 154.000,350.800 154.000 C 350.580 154.000,350.400 153.730,350.400 153.400 C 350.400 153.070,350.220 152.800,350.000 152.800 C 349.780 152.800,349.600 152.530,349.600 152.200 C 349.600 151.870,349.420 151.600,349.200 151.600 C 348.980 151.600,348.800 151.330,348.800 151.000 C 348.800 150.670,348.620 150.400,348.400 150.400 C 348.180 150.400,348.000 150.130,348.000 149.800 C 348.000 149.470,347.820 149.200,347.600 149.200 C 347.380 149.200,347.200 148.930,347.200 148.600 C 347.200 148.270,347.020 148.000,346.800 148.000 C 346.580 148.000,346.400 147.764,346.400 147.475 C 346.400 147.187,346.040 146.564,345.600 146.092 C 345.160 145.620,344.800 145.130,344.800 145.003 C 344.800 144.877,344.170 144.143,343.400 143.373 C 342.630 142.603,342.000 141.798,342.000 141.583 C 342.000 141.368,341.505 140.654,340.900 139.996 C 339.584 138.564,339.378 138.316,337.589 136.009 C 336.825 135.024,335.400 133.494,334.421 132.609 C 333.443 131.724,331.823 130.216,330.821 129.257 C 329.820 128.298,328.370 127.039,327.600 126.458 C 326.830 125.878,325.723 124.907,325.140 124.301 C 324.556 123.696,323.921 123.200,323.728 123.200 C 323.535 123.200,323.117 122.840,322.800 122.400 C 322.483 121.960,321.993 121.600,321.712 121.600 C 321.430 121.600,321.200 121.420,321.200 121.200 C 321.200 120.980,320.996 120.800,320.747 120.800 C 320.498 120.800,320.003 120.474,319.647 120.075 C 318.801 119.127,315.377 116.800,314.828 116.800 C 314.593 116.800,314.400 116.650,314.400 116.468 C 314.400 116.285,313.905 115.881,313.300 115.570 C 312.695 115.260,311.909 114.689,311.553 114.303 C 311.197 113.916,310.811 113.600,310.694 113.600 C 310.577 113.600,309.302 112.883,307.859 112.007 C 306.417 111.130,304.508 110.098,303.618 109.712 C 302.728 109.327,302.000 108.874,302.000 108.706 C 302.000 108.538,301.640 108.400,301.200 108.400 C 300.760 108.400,300.400 108.220,300.400 108.000 C 300.400 107.780,300.040 107.600,299.600 107.600 C 299.160 107.600,298.800 107.432,298.800 107.226 C 298.800 107.020,298.170 106.624,297.400 106.346 C 296.630 106.067,296.000 105.695,296.000 105.520 C 296.000 105.344,295.550 105.200,295.000 105.200 C 294.450 105.200,294.000 105.020,294.000 104.800 C 294.000 104.580,293.640 104.400,293.200 104.400 C 292.760 104.400,292.400 104.220,292.400 104.000 C 292.400 103.780,292.055 103.600,291.633 103.600 C 291.212 103.600,290.807 103.448,290.733 103.262 C 290.660 103.076,290.060 102.795,289.400 102.637 L 288.200 102.350 289.800 103.776 M128.390 129.916 C 137.517 134.512,135.704 147.135,125.562 149.615 C 120.969 150.737,115.447 147.359,113.808 142.425 C 110.928 133.754,120.206 125.796,128.390 129.916 M191.400 129.755 C 198.091 132.924,199.612 141.217,194.476 146.525 C 188.550 152.649,178.400 149.602,176.881 141.243 C 175.359 132.872,183.829 126.170,191.400 129.755 M254.895 129.762 C 262.230 133.314,262.788 144.220,255.837 148.170 C 245.741 153.908,235.614 142.926,241.941 133.100 C 244.382 129.309,250.632 127.698,254.895 129.762 M99.767 175.762 C 102.738 177.007,105.140 179.986,105.967 183.452 C 106.442 185.444,106.364 186.224,105.331 189.758 C 103.533 195.909,93.100 197.836,88.308 192.903 C 80.366 184.727,89.294 171.373,99.767 175.762 M163.467 176.040 C 168.311 178.363,170.634 184.006,168.783 188.955 C 165.480 197.781,153.439 198.306,149.421 189.800 C 145.288 181.050,154.695 171.835,163.467 176.040 M226.585 175.952 C 231.201 177.994,233.894 183.866,232.294 188.400 C 228.561 198.979,214.212 198.236,211.967 187.347 C 210.274 179.133,218.782 172.500,226.585 175.952 M290.344 176.255 C 298.254 180.117,297.595 192.100,289.301 195.203 C 277.957 199.447,269.811 184.709,279.285 177.080 C 282.314 174.641,286.412 174.335,290.344 176.255 M128.690 225.343 C 132.877 227.508,135.155 232.764,133.916 237.399 C 131.247 247.378,116.768 247.543,113.700 237.628 C 111.060 229.097,120.689 221.206,128.690 225.343 M191.955 225.377 C 199.942 229.507,199.009 241.673,190.482 244.578 C 178.651 248.610,171.164 232.173,181.829 225.582 C 184.369 224.012,189.130 223.916,191.955 225.377 M253.868 224.858 C 260.857 226.971,263.060 236.264,257.900 241.862 C 251.558 248.743,239.975 244.075,240.009 234.651 C 240.035 227.252,246.553 222.646,253.868 224.858 M156.262 288.471 C 164.420 292.306,164.383 303.640,156.200 307.459 C 147.433 311.550,138.416 302.255,142.547 293.384 C 144.866 288.404,151.253 286.116,156.262 288.471 M219.936 288.643 C 226.134 291.732,227.539 300.035,222.726 305.137 C 216.345 311.902,204.800 307.340,204.800 298.053 C 204.800 290.192,212.917 285.145,219.936 288.643 M190.960 337.409 C 201.933 341.994,198.046 358.452,186.215 357.502 C 175.522 356.644,173.017 342.069,182.800 337.634 C 184.989 336.641,188.867 336.534,190.960 337.409 " stroke="none" fill="#e56a77" fill-rule="evenodd"></path><path id="path3" d="M275.800 17.200 C 275.664 17.420,274.843 17.600,273.976 17.600 C 273.109 17.600,272.400 17.780,272.400 18.000 C 272.400 18.220,271.781 18.400,271.024 18.400 C 270.267 18.400,269.536 18.580,269.400 18.800 C 269.264 19.020,268.724 19.200,268.200 19.200 C 267.676 19.200,267.136 19.380,267.000 19.600 C 266.864 19.820,266.403 20.000,265.976 20.000 C 265.549 20.000,265.200 20.180,265.200 20.400 C 265.200 20.620,264.750 20.800,264.200 20.800 C 263.650 20.800,263.200 20.980,263.200 21.200 C 263.200 21.420,263.021 21.600,262.803 21.600 C 262.432 21.600,261.778 22.095,259.793 23.876 C 259.349 24.274,258.179 25.588,257.193 26.796 C 256.207 28.004,254.970 29.484,254.443 30.085 C 253.563 31.091,250.869 34.507,244.174 43.106 C 241.079 47.082,241.109 46.800,243.780 46.800 C 244.979 46.800,246.824 46.966,247.880 47.168 C 248.936 47.370,250.970 47.741,252.400 47.992 C 255.372 48.513,256.762 48.863,260.366 49.994 C 263.788 51.069,266.800 50.181,266.800 48.099 C 266.800 47.890,267.340 47.154,268.000 46.463 C 268.660 45.772,269.200 45.060,269.200 44.879 C 269.200 44.699,269.519 44.202,269.910 43.775 C 270.300 43.349,271.647 41.650,272.902 40.000 C 274.157 38.350,275.506 36.640,275.900 36.200 C 276.293 35.760,277.055 34.770,277.592 34.000 C 278.129 33.230,279.071 32.123,279.685 31.540 C 280.298 30.956,280.800 30.303,280.800 30.088 C 280.800 29.873,281.499 28.976,282.354 28.096 C 283.208 27.215,284.063 26.228,284.254 25.902 C 284.581 25.340,288.026 21.265,289.100 20.168 C 290.061 19.186,289.897 17.816,288.800 17.667 C 288.250 17.593,287.629 17.368,287.420 17.166 C 286.897 16.662,276.113 16.694,275.800 17.200 M175.615 18.700 C 175.623 18.865,178.008 20.834,180.915 23.076 C 183.822 25.318,186.560 27.481,187.000 27.883 C 187.440 28.285,188.330 28.994,188.978 29.459 L 190.157 30.304 191.470 29.452 C 193.468 28.155,192.825 25.603,190.500 25.600 C 190.225 25.600,190.000 25.420,190.000 25.200 C 190.000 24.980,189.730 24.800,189.400 24.800 C 189.070 24.800,188.800 24.664,188.800 24.498 C 188.800 24.331,188.215 23.941,187.500 23.630 C 186.785 23.319,186.110 22.959,186.000 22.830 C 185.545 22.296,180.631 20.000,179.944 20.000 C 179.535 20.000,179.200 19.820,179.200 19.600 C 179.200 19.380,178.851 19.200,178.424 19.200 C 177.997 19.200,177.536 19.020,177.400 18.800 C 177.114 18.338,175.593 18.252,175.615 18.700 M207.325 42.494 C 201.502 47.147,198.981 49.569,196.931 52.481 C 192.925 58.172,184.867 57.120,181.723 50.495 C 181.374 49.758,180.438 48.670,179.644 48.077 C 178.850 47.485,178.140 46.865,178.067 46.700 C 177.993 46.535,177.768 46.400,177.567 46.400 C 176.886 46.400,177.194 47.531,178.200 48.727 C 178.750 49.381,179.200 50.070,179.201 50.258 C 179.201 50.446,179.726 51.214,180.368 51.964 C 181.009 52.714,181.768 53.794,182.054 54.364 C 182.341 54.934,183.076 56.152,183.688 57.072 C 184.299 57.992,184.800 58.937,184.800 59.172 C 184.800 59.407,184.980 59.600,185.200 59.600 C 185.420 59.600,185.600 59.960,185.600 60.400 C 185.600 60.840,185.780 61.200,186.000 61.200 C 186.220 61.200,186.400 61.537,186.400 61.950 C 186.400 62.601,185.966 62.734,183.100 62.963 C 181.285 63.108,178.270 63.396,176.400 63.605 C 174.530 63.813,172.010 64.093,170.800 64.228 C 169.590 64.363,168.429 64.637,168.220 64.837 C 168.011 65.037,167.167 65.200,166.344 65.200 C 165.521 65.200,164.736 65.380,164.600 65.600 C 164.464 65.820,163.643 66.000,162.776 66.000 C 161.909 66.000,161.200 66.180,161.200 66.400 C 161.200 66.620,160.761 66.800,160.224 66.800 C 159.687 66.800,159.136 66.980,159.000 67.200 C 158.864 67.420,158.131 67.600,157.371 67.600 C 156.611 67.600,155.587 67.808,155.095 68.062 C 153.169 69.058,152.783 69.200,152.005 69.200 C 151.562 69.200,151.200 69.380,151.200 69.600 C 151.200 69.820,150.851 70.000,150.424 70.000 C 149.997 70.000,149.536 70.180,149.400 70.400 C 149.264 70.620,148.803 70.800,148.376 70.800 C 147.949 70.800,147.600 70.980,147.600 71.200 C 147.600 71.420,147.240 71.600,146.800 71.600 C 146.360 71.600,146.000 71.780,146.000 72.000 C 146.000 72.220,145.640 72.400,145.200 72.400 C 144.760 72.400,144.400 72.580,144.400 72.800 C 144.400 73.020,144.122 73.200,143.783 73.200 C 143.444 73.200,142.780 73.560,142.308 74.000 C 141.836 74.440,141.213 74.800,140.925 74.800 C 140.636 74.800,140.400 74.980,140.400 75.200 C 140.400 75.420,140.106 75.600,139.747 75.600 C 139.388 75.600,138.803 75.916,138.447 76.303 C 138.091 76.689,137.329 77.247,136.754 77.541 C 135.232 78.321,133.532 79.999,133.719 80.536 C 133.901 81.059,134.638 81.034,137.100 80.422 C 138.035 80.190,139.475 79.832,140.300 79.627 C 141.125 79.421,142.430 79.073,143.200 78.853 C 145.181 78.288,149.382 77.325,152.200 76.790 C 153.520 76.540,155.320 76.184,156.200 76.000 C 158.717 75.473,161.942 74.886,165.200 74.362 C 166.850 74.096,171.869 73.096,176.352 72.140 C 187.665 69.726,191.708 69.708,202.102 72.030 C 209.302 73.638,211.876 74.163,215.800 74.822 C 216.900 75.006,218.610 75.330,219.600 75.542 C 222.026 76.060,225.805 76.809,228.000 77.207 C 228.990 77.386,230.520 77.740,231.400 77.993 C 233.863 78.701,236.070 79.236,237.504 79.473 C 238.221 79.592,238.906 79.849,239.027 80.044 C 239.148 80.240,239.831 80.400,240.544 80.400 C 241.257 80.400,242.065 80.625,242.340 80.900 C 242.876 81.436,271.086 81.916,273.054 81.422 L 274.037 81.175 273.177 79.968 C 272.163 78.543,267.417 74.539,265.274 73.299 C 261.320 71.012,257.409 69.254,254.400 68.411 C 253.410 68.134,252.150 67.769,251.600 67.600 C 247.277 66.270,245.205 66.189,224.000 66.520 C 220.636 66.572,219.359 66.082,217.249 63.929 C 213.641 60.248,213.583 55.957,217.048 49.142 C 218.876 45.547,218.887 45.605,216.000 43.602 C 215.230 43.068,214.150 42.159,213.600 41.583 C 211.692 39.583,210.809 39.711,207.325 42.494 M289.064 67.895 C 289.197 68.283,289.791 69.230,290.382 70.000 C 302.041 85.177,303.958 96.746,295.356 100.017 C 292.720 101.019,294.807 101.200,308.976 101.200 C 317.709 101.200,323.647 101.048,323.787 100.822 C 323.915 100.613,323.296 98.949,322.410 97.123 C 321.525 95.297,320.800 93.578,320.800 93.302 C 320.800 93.026,320.620 92.800,320.400 92.800 C 320.180 92.800,320.000 92.564,320.000 92.275 C 320.000 91.987,319.685 91.402,319.300 90.975 C 318.915 90.549,318.345 89.705,318.032 89.100 C 317.720 88.495,317.315 88.000,317.132 88.000 C 316.950 88.000,316.800 87.765,316.800 87.478 C 316.800 87.191,316.215 86.309,315.500 85.517 C 314.785 84.726,313.570 83.305,312.800 82.360 C 311.116 80.293,310.072 79.265,308.578 78.200 C 307.961 77.760,307.046 76.995,306.546 76.500 C 306.046 76.005,305.448 75.600,305.218 75.600 C 304.988 75.600,304.800 75.420,304.800 75.200 C 304.800 74.980,304.612 74.800,304.383 74.800 C 304.154 74.800,303.580 74.440,303.108 74.000 C 302.636 73.560,302.013 73.200,301.725 73.200 C 301.436 73.200,301.200 73.020,301.200 72.800 C 301.200 72.580,300.945 72.400,300.633 72.400 C 300.322 72.400,300.007 72.265,299.933 72.100 C 299.713 71.605,294.746 69.200,293.944 69.200 C 293.535 69.200,293.200 69.020,293.200 68.800 C 293.200 68.580,292.876 68.400,292.480 68.400 C 292.084 68.400,291.589 68.243,291.380 68.052 C 290.521 67.264,288.807 67.148,289.064 67.895 M175.600 92.852 C 170.374 93.453,164.675 94.505,158.400 96.027 C 156.530 96.480,154.415 96.950,153.700 97.070 C 150.722 97.569,152.771 98.000,158.100 97.995 C 162.266 97.991,164.823 97.773,167.600 97.185 C 169.690 96.743,172.210 96.216,173.200 96.013 C 177.086 95.218,188.222 92.763,188.600 92.617 C 189.380 92.317,178.554 92.513,175.600 92.852 " stroke="none" fill="#81bda4" fill-rule="evenodd"></path><path id="path4" d="" stroke="none" fill="#00ffff" fill-rule="evenodd"></path></g></svg>