<?xml version="1.0" standalone="no"?>
<!DOCTYPE svg PUBLIC "-//W3C//DTD SVG 20010904//EN"
 "http://www.w3.org/TR/2001/REC-SVG-20010904/DTD/svg10.dtd">
<svg version="1.0" xmlns="http://www.w3.org/2000/svg"
 width="225.000000pt" height="225.000000pt" viewBox="0 0 225.000000 225.000000"
 preserveAspectRatio="xMidYMid meet">
<metadata>
Created by potrace 1.11, written by Peter Selinger 2001-2013
</metadata>
<g transform="translate(0.000000,225.000000) scale(0.100000,-0.100000)"
fill="#000000" stroke="none">
<path d="M651 2231 c-11 -11 -21 -29 -21 -40 0 -10 34 -61 75 -112 83 -105 85
-96 -16 -123 -78 -22 -169 -85 -213 -149 -20 -29 -36 -62 -36 -73 0 -21 23
-48 48 -55 7 -3 -10 -21 -39 -44 -104 -79 -192 -210 -224 -332 -8 -31 -15 -97
-15 -146 0 -160 43 -315 145 -522 143 -292 316 -490 514 -588 83 -41 86 -42
185 -41 235 1 310 16 413 83 290 187 572 693 573 1026 0 225 -120 405 -354
529 l-68 36 101 0 c56 0 101 4 101 8 0 18 -59 99 -91 126 -19 16 -52 37 -75
47 -22 10 -49 28 -60 40 -10 11 -38 31 -62 43 l-43 22 53 68 c29 38 61 79 71
92 18 23 18 23 -7 30 -14 3 -47 -1 -75 -9 l-50 -14 15 23 c9 13 13 32 9 44
-27 84 -188 59 -351 -55 l-64 -45 -58 29 c-31 16 -93 48 -136 72 -67 36 -91
43 -152 47 -63 4 -74 2 -93 -17z m299 -207 c30 -23 65 -60 78 -82 l23 -41 -23
-5 c-13 -3 -42 -7 -65 -9 -40 -5 -41 -4 -33 17 9 25 -15 89 -54 141 -51 68
-38 64 74 -21z m313 24 c-20 -29 -37 -54 -38 -56 -1 -1 -10 7 -19 17 -17 19
-16 21 36 55 29 20 54 36 55 36 2 0 -14 -24 -34 -52z m-421 -193 c-18 -8 -46
-24 -62 -35 -21 -15 -43 -20 -92 -20 l-63 1 37 20 c43 22 138 47 183 48 l30 0
-33 -14z m22 -178 c-194 -84 -336 -222 -396 -382 -19 -51 -22 -79 -21 -185 0
-106 4 -139 27 -214 79 -263 226 -517 397 -688 37 -38 64 -68 60 -68 -23 0
-145 92 -206 154 -241 248 -432 689 -398 922 19 131 94 255 207 341 103 78
258 141 346 142 l35 0 -51 -22z"/>
</g>
</svg>
