<?xml version="1.0" standalone="no"?>
<!DOCTYPE svg PUBLIC "-//W3C//DTD SVG 20010904//EN"
 "http://www.w3.org/TR/2001/REC-SVG-20010904/DTD/svg10.dtd">
<svg version="1.0" xmlns="http://www.w3.org/2000/svg"
 width="225.000000pt" height="225.000000pt" viewBox="0 0 225.000000 225.000000"
 preserveAspectRatio="xMidYMid meet">
<metadata>
Created by potrace 1.11, written by Peter Selinger 2001-2013
</metadata>
<g transform="translate(0.000000,225.000000) scale(0.100000,-0.100000)"
fill="#000000" stroke="none">
<path d="M668 2239 c-10 -5 -23 -19 -29 -30 -12 -24 -5 -36 83 -147 32 -40 58
-77 58 -82 0 -4 -19 -11 -43 -14 -101 -15 -223 -97 -274 -183 -21 -37 -24 -48
-15 -68 6 -14 23 -27 36 -31 25 -6 24 -7 -22 -43 -206 -163 -285 -375 -236
-631 81 -429 416 -894 713 -990 74 -24 85 -24 296 -2 159 17 253 69 397 221
240 252 429 685 404 927 -7 73 -36 160 -73 223 -56 96 -200 221 -309 268 -38
16 -38 16 -14 24 14 4 58 7 98 8 39 1 72 4 72 9 0 28 -84 118 -135 144 -22 12
-57 36 -79 54 -21 18 -56 41 -77 51 l-39 18 71 90 70 90 -31 3 c-17 2 -51 -3
-76 -12 l-44 -15 15 22 c8 12 15 34 15 50 0 23 -7 31 -36 43 -70 29 -186 -7
-318 -99 l-62 -43 -44 23 c-25 13 -74 41 -110 63 -107 63 -214 88 -262 59z
m303 -228 c24 -21 54 -56 66 -78 l23 -40 -58 -7 c-31 -3 -68 -9 -82 -12 -24
-7 -24 -7 -7 13 32 36 18 81 -55 174 -15 20 -28 40 -28 43 0 10 95 -52 141
-93z m298 40 c-41 -58 -42 -59 -66 -44 -13 9 -22 17 -21 18 10 9 122 85 125
85 2 0 -15 -27 -38 -59z m-410 -196 c-20 -7 -55 -25 -77 -40 -34 -22 -48 -26
-103 -23 l-64 3 36 22 c46 29 131 52 194 52 l50 0 -36 -14z m-7 -190 c-273
-129 -405 -308 -405 -545 0 -267 181 -655 418 -898 49 -50 88 -92 86 -92 -2 0
-31 15 -65 32 -83 44 -234 197 -315 317 -149 224 -251 501 -251 680 0 164 92
321 250 426 106 70 252 123 345 124 23 0 10 -10 -63 -44z"/>
</g>
</svg>
